/* XPM */
static char *button[] = {
/* columns rows colors chars-per-pixel */
"30 30 30 1",
"  c black",
". c #213043",
"X c #4C6F97",
"o c #4F739D",
"O c #4F749F",
"+ c #51749F",
"@ c #5376A2",
"# c #5379A7",
"$ c #5478A4",
"% c #557AA6",
"& c #577CA8",
"* c #597EAA",
"= c #5A7FAC",
"- c #5B81AE",
"; c #5D83B0",
": c #5F85B3",
"> c #6187B5",
", c #6289B7",
"< c #638AB9",
"1 c #658CBB",
"2 c #678EBD",
"3 c #6890BF",
"4 c #6992C2",
"5 c #6B94C4",
"6 c #6D95C6",
"7 c #6F97C8",
"8 c #7099CA",
"9 c #719BCC",
"0 c #739DCF",
"q c #759FD1",
/* pixels */
"qqqqqqqqqqqqqqqq0qqqqq00qqqqqq",
"q00000000000000000000000000000",
"999999999999999999990999990999",
"888888888888888888888888888888",
"686867687686677777777777777777",
"666666666666666666666666666666",
"555565556555556555555555555555",
"444444444444444444444444444444",
"333333323333333333333333333333",
"222222222222222222222222222222",
"1111111111111111111111112<2<11",
"<<<<<<<<<<<<<<<<<<<,<<<<<<<<<,",
",,,,,,,,,,,,,,,,,,,,,,,,,,,,,,",
",,,:,,:,>>,:>>>>,,>>>>>>>>>>,,",
"::::::::::::::::::::::::::::::",
"-:----:-:-:-:-:--:--:-:-:-:--:",
"------------------------------",
"----&-&---=====-===-====---===",
"&&-&&&&-&&-&&&-&&==&&=&=&&-&&&",
"&&&&&&&&&&&&&&&&&&&&&&&&&&&&&&",
"%%%%&%%%$&$&%%%$%%%%%%%%$&$&%$",
"$$$$$$$$$$$$$$$$$$$$$$$$$$$$$$",
"@@@@@@@@@@@@$@@@@@@@@@@@@@@@@@",
"+++++++++++++++O+++++++++++@OO",
"++oooooooooooooo+++ooooooooooo",
"XXXXXXXXXXXXXXXXXXXXXXXXXXXXXX",
"Ooo+OOOOOOOOOOOOOoooOOOOOOOOOO",
"###################$##########",
"..............................",
"                              "
};
