/* XPM */
static char *button[] = {
/* columns rows colors chars-per-pixel */
"30 30 103 2",
"   c #36DA36D837D1",
".  c #29CC35965D4D",
"X  c #298D35795D9D",
"o  c #31193C235FB9",
"O  c #314D3BAE5FD4",
"+  c #2F853B2661C6",
"@  c #2F7C3B6261B2",
"#  c #2EC83B076285",
"$  c #30833BDB606E",
"%  c #33A53F3A6413",
"&  c #32233E6E65A6",
"*  c #32373E796592",
"=  c #34873F9362C2",
"-  c #34343F7F6366",
";  c #3CAC425E547D",
":  c #374E42AD65E6",
">  c #3A7C46E66C28",
",  c #39F546BF6D26",
"<  c #3CE84A0E7042",
"1  c #3BFF498970A6",
"2  c #3ECE4BFA70E0",
"3  c #3E494BBC7189",
"4  c #51D152B855CE",
"5  c #5EBC5E655DD4",
"6  c #41254EE6745B",
"7  c #41634F267494",
"8  c #41A34F6A74D0",
"9  c #421E4FE775C1",
"0  c #441F523F7798",
"q  c #447B52AB782A",
"w  c #4500533178F0",
"e  c #452753657939",
"r  c #456153A77948",
"t  c #45AA53FB79AA",
"y  c #461C547979A1",
"u  c #471F55A27A78",
"i  c #46AE550C7AA4",
"p  c #470E55777A86",
"a  c #478555E97B6C",
"s  c #48C4576E7BF4",
"d  c #48DD574C7CAF",
"f  c #4991580C7D47",
"g  c #49B5582D7D88",
"h  c #49F1587E7D48",
"j  c #49F758777DB3",
"k  c #4A6758ED7E42",
"l  c #4B2659B17EEC",
"z  c #4B6D59FB7F2E",
"x  c #4BCE5A737F14",
"c  c #674A6BBF7AB9",
"v  c #661F6BA77D9D",
"b  c #65DA6BF28000",
"n  c #66ED6C397ECC",
"m  c #66DF6C7D7EB1",
"M  c #707D701D6F92",
"N  c #4D265BD480C3",
"B  c #4E4A5D1B81C1",
"V  c #4E515D2281C7",
"C  c #50225F3B8352",
"Z  c #505B5F798385",
"A  c #51B460C48551",
"S  c #523B612085AB",
"D  c #5269615385A9",
"F  c #52FE61EB8659",
"G  c #53346224869B",
"H  c #52E1626786B4",
"J  c #53B0633C8780",
"K  c #54EF648B88AF",
"L  c #5587649688D5",
"P  c #562265CC89D8",
"I  c #5698665B8A32",
"U  c #56B066748A48",
"Y  c #57B966F98B07",
"T  c #593469068CC2",
"R  c #5965693A8CF0",
"E  c #599369698D20",
"W  c #5EBC6F6792A3",
"Q  c #5F066FB592ED",
"!  c #5F737027935A",
"~  c #601B705493E6",
"^  c #618B7258958F",
"/  c #67BA78D79B83",
"(  c #681279459BEE",
")  c #68F87A259D1F",
"_  c #69BF7B169DB9",
"`  c #6D727EF8A195",
"'  c #6F4C8073A2AA",
"]  c #807F81568480",
"[  c #6F5D8088A2BE",
"{  c #705A81BDA3EA",
"}  c #70E18262A48A",
"|  c #712C82FBA567",
" . c #71CD8376A595",
".. c #720283B9A5D6",
"X. c #7277843DA65C",
"o. c #7359855DA77A",
"O. c #73F985ECA813",
"+. c #749786ADA8D0",
"@. c #80DE80A0808F",
"#. c #80CA80F68231",
"$. c #80848155847B",
"%. c #809181628499",
"&. c #863286308729",
/* pixels */
"&.&.&.&.&.&.&.&.&.&.&.&.&.&.&.&.@.&.&.&.&.&.$.#.&.&.&.&.&.&.",
"M M M M M M M M M M M M M M M M M M M M M M M M M M M M M M ",
"4 4 4 4 4 4 4 4 4 4 4 4 4 4 4 4 4 4 4 4 4 4 4 4 4 4 4 4 4 4 ",
"; ; ; ; ; ; ; ; ; ; ; ; ; ; ; ; o O 4 o 4 o   4 ; ; ; ; ; ; ",
": : : : : : : : : : : : : : : : : : : : : : : : : : : : : : ",
"1 1 1 1 1 1 1 1 1 1 1 1 1 1 1 1 1 1 1 3 1 1 3 3 < < < < < < ",
"e e e e e e e e e e e e e e e e e e e e 0 e e e 0 0 0 s 0 e ",
"B B B B B B B B B B B B B B B B C N N d N Z D D D s r k L Z ",
"I I P P I I I P I I I I I I I I I I I D I E Y E Y L Z L E Y ",
"! W W W ! W ! W Q Q Q Q Q Q Q ! Q Q Q W W W Q Q Q Q ~ Q ~ ^ ",
"/ / / / / / / / / / / / / / / / ) / / / _ _ / ) _ / ) / _ ` ",
"' { { ` { { { { ' ' ' ' ' ' ' ' ` ..` ` ..` ` ' ` ` ` ......",
"{ { { O.{ O.{ { { ....X.....................................",
"O.O.O.O.O.O.O.O.O.O.O.O.O.O.O.X.O.O.o.o.+.....o.......+.o...",
"+.+.O.O.O.O.O.O.O.O.O.O.+.O.O.O.O.O.O.O.+.+...+.O.O.+.+.+.o.",
"O.{ { { O.{ { O.{ X.{ ....{ ....{ ..........................",
"/ ` ` / / ` / / _ _ _ _ _ _ _ ) ) ) _ ) ) ) ) ) _ _ _ _ _ ) ",
"W W ! ! ! ! W W ~ ~ Q Q Q Q ~ Q ~ Q ~ ~ ~ ~ ~ ~ ~ ~ Q Q ~ Q ",
"I I I I I I I T Y Y Y Y Y Y Y Y Y Y Y Y Y Y Y Y Y Y Y Y Y Y ",
"C C A C Z C C C Z B k L l d Z L d l L N Z Z d l L N D D d d ",
"d d d d N d d d s s s k s e k g r r k r z l e r k a d g e e ",
"7 7 7 7 3 9 7 7 7 7 6 6 7 9 0 0 9 9 9 7 9 9 9 7 7 7 e 0 7 7 ",
", , , , , , , , , , , , , , 6 < > > , , , , > , , , 3 3 > , ",
"& & & & & & & & & & & & & & = = * * * * * * * * & & & = : * ",
"X X X X X X X X X X X X X X X X . . X X # X X X X X X X X X ",
"O O O O O O O O O @ O $ O O O O O O O O $ $ # # # O O O O O ",
"b b b b n n n c b b m m b n m m n c n c c b n b b b b b b c ",
"$.$.$.$.$.$.$.$.$.$.$.$.$.$.$.$.%.%.%.#.%.$.%.$.#.%.#.#.%.%.",
"5 5 5 5 5 5 5 5 5 5 5 5 5 5 5 5 5 5 5 5 5 5 5 5 5 5 5 5 5 5 ",
"                                                            "
};
